<?xml version="1.0" encoding="UTF-8"?>
<svg id="Layer_1" data-name="Layer 1" xmlns="http://www.w3.org/2000/svg" viewBox="0 0 246.37 141.39">
  <path d="m118.86,140.01h-13.8v-5.65h-.22c-3.06,3.97-8.61,7.02-16.41,7.02-9.72,0-20.92-4.08-20.92-20.73v-37.87h13.8v33.92c0,7.92,3.18,11.31,10.18,11.31,10.41,0,13.58-7.57,13.58-14.48v-30.75h13.8v57.23Z"/>
  <path d="m123.04,0h13.8v140.01h-13.8V0Z"/>
  <path d="m140.06,0h13.8v140.01h-13.8V0Z"/>
  <path d="m214.69,82.79h13.81v7.92h.22c3.28-6.56,9.62-9.28,17.64-9.28v14.02c-9.39,0-17.87,4.41-17.87,16.85v27.71h-13.81v-57.23Z"/>
  <path d="m11.92.02h13.79v28.62h.22c3.05-3.96,8.59-7.01,16.39-7.01,9.72,0,20.91,4.07,20.91,20.68v37h-13.79v-33.05c0-7.91-3.17-11.3-10.17-11.3-10.4,0-13.56,8.82-13.56,15.82v28.52h-13.79V.02Z"/>
  <path d="m78.94,53.62c.22,8.17,7.08,13.5,14.26,13.5,10.45,0,14.59-5.99,15.9-7.84l11.21,6.53c-4.14,6.31-12.08,13.5-27.11,13.5-17.85,0-28.2-12.41-28.2-28.85s10.34-28.85,28.2-28.85,26.45,12.3,26.45,32.01h-40.72Zm26.78-10.23c0-2.94-3.59-10.89-12.52-10.89-7.73,0-12.85,5.01-14.26,10.89h26.78Z"/>
  <path d="m170.79,114.55c.22,8.17,7.08,13.5,14.26,13.5,10.45,0,14.59-5.99,15.9-7.84l11.21,6.53c-4.14,6.31-12.08,13.5-27.11,13.5-17.85,0-28.2-12.41-28.2-28.85s10.34-28.85,28.2-28.85,26.45,12.3,26.45,32.01h-40.72Zm26.78-10.23c0-2.94-3.59-10.89-12.52-10.89-7.73,0-12.85,5.01-14.26,10.89h26.78Z"/>
  <path d="m213.22,49.97c0,16.43-10.34,28.84-28.19,28.84s-28.19-12.41-28.19-28.84,10.34-28.84,28.19-28.84,28.19,12.41,28.19,28.84Zm-42.44,0c0,8.6,4.79,16.65,14.26,16.65s14.26-8.05,14.26-16.65-4.79-16.65-14.26-16.65-14.26,8.05-14.26,16.65Z"/>
  <path d="m63.23,82.78v57.23h-13.7l.89-40.78.16-5.76-.49,2.03c-.73,3.24-.81,3.65-1.46,6.08l-10.78,38.43h-12.32l-10.38-36.8-2.51-10.21c.24,4.54.24,5.51.49,10.94l.73,36.08H0v-57.23h20.92l8.76,32.1,2.03,9.16c.81-3.97.89-4.38,1.54-7.05l9.16-34.21h20.83Z"/>
  <path d="m239.47,139.97c-3.96,0-7.05-3.03-7.05-6.88s3.05-6.83,6.94-6.83,6.85,3,6.85,6.73c0,3.94-2.92,6.98-6.73,6.98Zm-.09-12.84c-3.37,0-5.95,2.62-5.95,5.97s2.66,5.99,5.99,5.99,5.79-2.62,5.79-5.92c0-3.46-2.47-6.05-5.82-6.05Zm1.8,9.84l-1.97-3.03h-1.15v3.03h-1.54v-7.98h2.77c1.12,0,1.71.11,2.21.35.78.37,1.13,1.13,1.13,2.01,0,1.23-.61,2.08-1.88,2.38l2.23,3.24h-1.8Zm-1.73-4.39c.54,0,.91-.06,1.17-.2.32-.19.45-.5.45-.95s-.17-.8-.63-.97c-.26-.09-.58-.11-1.02-.11h-1.34v2.23h1.38Z"/>
</svg>